# xmcd CD database file
#
# Track frame offsets:
#	150
#	13857
#	27509
#	39151
#	53763
#	66510
#	81151
#	107107
#	120794
#	134585
#	147109
#	162052
#
# Disc length: 2343 seconds
#
# Revision: 0
# Processed by: cddbd v1.5.2PL0 Copyright (c) Steve Scherf et al.
# Submitted via: CDex 1.70beta2
#
DISCID=9c09250c
DTITLE=Various Artist - Cocktail Hour Jazz - Vintage Jazz
DYEAR=2008
DGENRE=Jazz
TTITLE0=Night In Tunisia - Miles Davis
TTITLE1=You're My Thrill - Lena Horne
TTITLE2=A-Tisket, A Tasket - Ella Fitzgerald w/ Chick Webb Orchestra
TTITLE3=Bird Of Paradise - Charlie Parker
TTITLE4=I Wanna Be Loved - Dinah Washington
TTITLE5=My Happiness - Ella Fitzgerald w/ The Song Spinners
TTITLE6=Brown Baby - Nina Simone
TTITLE7=Sentimental Lady - Duke Ellington
TTITLE8=Time After Time - Sarah Vaughn
TTITLE9=All the Things You Are - Dizzy Gillespie
TTITLE10=I Got It Bad And That Ain't God - Duke Ellington w/ Ivie Anderson
TTITLE11=The Way You Look Tonight - Billie Holiday
EXTD=YEAR: 2008
EXTT0=
EXTT1=
EXTT2=
EXTT3=
EXTT4=
EXTT5=
EXTT6=
EXTT7=
EXTT8=
EXTT9=
EXTT10=
EXTT11=
PLAYORDER=
